<svg width="768" height="768" viewBox="0 0 768 768" fill="none" xmlns="http://www.w3.org/2000/svg">
<path d="M126.318 64.126C120.608 77.9128 112.235 90.4907 101.615 101.11C91.0064 111.719 78.4229 120.106 64.6221 125.822C64.4154 125.908 64.207 125.99 64 126.074V188.523C87.9356 208.35 107.686 232.348 122.834 258.91C144.567 297.017 156.002 340.133 156 384.009C155.998 427.876 144.572 470.992 122.832 509.105C107.682 535.665 87.9335 559.657 64 579.479V641.924L64.6221 642.178L65.9121 642.722C78.7779 648.237 90.5532 656.086 100.614 665.901L101.615 666.89L102.603 667.892C112.427 677.962 120.266 689.731 125.775 702.585L126.318 703.874L126.37 704H641.626C641.643 703.958 641.66 703.916 641.678 703.874L642.223 702.581C647.934 689.259 656.134 677.145 666.39 666.89C676.975 656.304 689.543 647.907 703.374 642.178L704 641.922V579.479C680.066 559.655 660.32 535.663 645.172 509.105C623.434 470.997 612.001 427.881 612 384.009C611.998 340.136 623.428 297.02 645.163 258.91C660.312 232.347 680.064 208.349 704 188.523V126.077C703.791 125.992 703.582 125.908 703.374 125.822C689.543 120.093 676.975 111.696 666.39 101.11C655.804 90.5245 647.407 77.957 641.678 64.126C641.66 64.084 641.643 64.042 641.626 64H126.37C126.353 64.0419 126.336 64.0841 126.318 64.126ZM697 20.5C697 27.0659 698.293 33.5676 700.806 39.6338C703.318 45.7001 707.001 51.2125 711.644 55.8555C716.287 60.4984 721.8 64.1816 727.866 66.6943C733.932 69.2069 740.434 70.5 747 70.5H748C759.046 70.5001 768 79.4543 768 90.5V210.094L767.989 210.754C767.762 217.565 764.035 223.761 758.374 227.617L757.262 228.381C733.976 244.499 714.87 265.871 700.758 290.616L700.002 291.952C684.267 320.073 675.999 351.766 676 384.007C676.001 416.759 684.536 448.946 700.764 477.396C715.102 502.532 734.585 524.181 758.373 540.383C764.217 544.363 768 550.837 768 557.907V677.5L767.993 678.017C767.723 688.652 759.151 697.224 748.515 697.493L748 697.5H747C740.434 697.5 733.932 698.793 727.866 701.306C721.8 703.818 716.287 707.502 711.644 712.145C707.001 716.787 703.318 722.3 700.806 728.366C698.293 734.432 697 740.934 697 747.5V748C697 759.046 688.046 768 677 768H91C79.9543 768 71 759.046 71 748V747.5C71 740.934 69.703 734.432 67.1904 728.366C64.6777 722.3 61.0032 716.787 56.3603 712.145C51.7174 707.502 46.1962 703.818 40.1299 701.306C34.0637 698.793 27.566 697.5 21 697.5H20C8.9543 697.5 0 688.546 0 677.5V557.907C0.00013064 550.837 3.78321 544.363 9.62695 540.383C33.0443 524.435 52.2921 503.208 66.5644 478.571L67.2402 477.396C83.2144 449.39 91.7309 417.764 91.9941 385.541L92 384.007C92.0011 351.766 83.7306 320.073 67.9951 291.952L67.2402 290.616C53.1277 265.871 34.0231 244.499 10.7383 228.381L9.62597 227.617C3.96531 223.761 0.238007 217.565 0.0107422 210.754L0 210.094V90.5C0 79.4543 8.9543 70.5 20 70.5H21C27.3608 70.5 33.6572 69.286 39.5596 66.9258L40.1299 66.6943C46.0065 64.2602 51.3713 60.7275 55.9219 56.2881L56.3603 55.8555C60.8582 51.3576 64.4468 46.044 66.9512 40.2012L67.1904 39.6338C69.6245 33.7572 70.9176 27.4718 70.9961 21.1152L71 20.5V20C71 8.95431 79.9543 0 91 0H677C688.046 0 697 8.95431 697 20V20.5Z" fill="black"/>
</svg>
