<svg width="1026" height="1026" viewBox="0 0 1026 1026" fill="none" xmlns="http://www.w3.org/2000/svg">
<path d="M1022.07 390.571C1023.95 388.696 1025 386.152 1025 383.5V1H1V383.5C1 386.152 2.05357 388.696 3.92893 390.571C5.80429 392.446 8.34783 393.5 11 393.5C42.826 393.5 73.3484 406.143 95.8528 428.647C118.357 451.152 131 481.674 131 513.5C131 545.326 118.357 575.848 95.8528 598.353C73.3484 620.857 42.826 633.5 11 633.5C8.34784 633.5 5.8043 634.554 3.92894 636.429C2.05357 638.304 1 640.848 1 643.5V1025H1025V643.5C1025 640.848 1023.95 638.304 1022.07 636.429C1020.2 634.554 1017.65 633.5 1015 633.5C983.174 633.5 952.651 620.857 930.147 598.353C907.643 575.848 895 545.326 895 513.5C895 481.674 907.643 451.152 930.147 428.647C952.652 406.143 983.174 393.5 1015 393.5C1017.65 393.5 1020.2 392.446 1022.07 390.571Z" stroke="black" style="stroke:black;stroke-opacity:1;"/>
</svg>
