<svg width="1026" height="242" viewBox="0 0 1026 242" fill="none" xmlns="http://www.w3.org/2000/svg">
<path d="M930.147 205.853C952.651 228.357 983.174 241 1015 241H1025V1H1015C983.174 1 952.652 13.6428 930.147 36.1472C907.643 58.6516 895 89.174 895 121C895 152.826 907.643 183.348 930.147 205.853Z" stroke="black"/>
<path d="M95.8528 205.853C73.3484 228.357 42.826 241 11 241H1.00001L1 1H11C42.826 1 73.3484 13.6428 95.8528 36.1472C118.357 58.6516 131 89.174 131 121C131 152.826 118.357 183.348 95.8528 205.853Z" stroke="black"/>
</svg>
