<svg width="363" height="540" viewBox="0 0 363 540" fill="none" xmlns="http://www.w3.org/2000/svg">
<path d="M27.4005 295.573C7.95493 295.573 -1.65054 283.847 1.5195 263.832L38.2792 31.7407C41.4492 11.7259 54.7691 0 74.2147 0H163.46C224.048 0 259.497 39.8275 249.987 99.8721C240.509 159.715 190.979 199.744 128.753 199.744H73.4865L63.336 263.832C60.166 283.847 46.8461 295.573 27.4005 295.573ZM81.0434 152.032H122.8C158.212 152.032 181.831 133.432 187.115 100.074C192.366 66.9184 174.843 48.3187 139.432 48.3187H97.47L81.0434 152.032Z" fill="black"/>
<path d="M119.873 539.798C100.428 539.798 90.8221 528.072 93.9922 508.057L131.36 272.125C134.562 251.908 147.882 240.182 167.328 240.182C186.773 240.182 196.379 251.908 193.177 272.125L177.166 373.21H179.009L309.144 253.323C319.214 244.023 327.6 240.182 337.835 240.182C354.21 240.182 364.948 252.514 362.45 268.283C361.105 276.774 356.978 283.446 347.919 291.533L253.1 375.838L324.888 482.179C332.306 493.501 335.023 502.194 333.71 510.483C331.084 527.061 316.139 540 299.15 540C286.459 540 278.599 535.35 270.899 523.22L199.821 416.272L165.511 446.8L155.809 508.057C152.639 528.072 139.319 539.798 119.873 539.798Z" fill="black"/>
</svg>
